# xmcd
#
# Track frame offsets: 
#        150
#        31767
#        66221
#        80782
#        108983
#        126983
#
# Disc length: 2004 seconds
#
# Revision: 0
# Processed by: cddbd v1.5.2PL0 Copyright (c) Steve Scherf et al.
# Submitted via: ExactAudioCopy v0.99pb4
#
DISCID=4c07d206
DTITLE=Oscar Valdambrini and Dino Piana Quintet - Afrodite
DYEAR=1977
DGENRE=Jazz
TTITLE0=Arabian Mood
TTITLE1=Drums Atmosphere
TTITLE2=Parkeriana
TTITLE3=I due modi
TTITLE4=Palpitazione
TTITLE5=Afrodite
EXTD=
EXTT0=
EXTT1=
EXTT2=
EXTT3=
EXTT4=
EXTT5=
PLAYORDER=
